<?xml version="1.0" encoding="UTF-8"?>
<svg version="1.1" xmlns="http://www.w3.org/2000/svg" width="804" height="804">
<path d="M0 0 C265.32 0 530.64 0 804 0 C804 265.32 804 530.64 804 804 C538.68 804 273.36 804 0 804 C0 538.68 0 273.36 0 0 Z " fill="#FEFEFE" transform="translate(0,0)"/>
<path d="M0 0 C0.6909375 0.58136719 1.381875 1.16273438 2.09375 1.76171875 C3.42160654 2.76897979 4.7531399 3.77149538 6.09375 4.76171875 C5.4844502 8.054959 4.35512364 10.03970985 2.29296875 12.66015625 C1.72771484 13.3871875 1.16246094 14.11421875 0.58007812 14.86328125 C-0.01353516 15.61351562 -0.60714844 16.36375 -1.21875 17.13671875 C-4.96206084 21.91223823 -8.62351755 26.65524604 -11.90625 31.76171875 C-12.41414062 31.36339844 -12.92203125 30.96507812 -13.4453125 30.5546875 C-17.44528498 27.476057 -21.27504143 24.84576261 -25.90625 22.76171875 C-25.90625 22.10171875 -25.90625 21.44171875 -25.90625 20.76171875 C-26.586875 20.65859375 -27.2675 20.55546875 -27.96875 20.44921875 C-30.85275677 19.77423844 -33.34675756 18.70703052 -36.05004883 17.52026367 C-43.06861268 14.65209612 -49.92291532 14.39642476 -57.40625 14.38671875 C-58.40011719 14.36222656 -59.39398437 14.33773438 -60.41796875 14.3125 C-66.76027009 14.28736538 -71.6483917 15.04952652 -76.90625 18.76171875 C-80.03950329 22.13599152 -81.77625431 24.40976356 -82.21875 29.01171875 C-81.83930899 33.56501091 -80.93454454 35.35488739 -77.90625 38.76171875 C-75.3612584 40.42835042 -72.71686832 41.61168593 -69.90625 42.76171875 C-69.27589844 43.03886719 -68.64554688 43.31601562 -67.99609375 43.6015625 C-63.27308769 45.55089354 -58.56169122 46.46820019 -53.51953125 47.234375 C-50.79910876 47.78333918 -48.47527969 48.72834302 -45.90625 49.76171875 C-43.24052985 50.25485372 -40.60809283 50.48695507 -37.90625 50.76171875 C-37.90625 51.42171875 -37.90625 52.08171875 -37.90625 52.76171875 C-36.6275 52.86484375 -35.34875 52.96796875 -34.03125 53.07421875 C-22.43299268 54.46312359 -14.30032709 59.1481054 -4.90625 65.76171875 C-4.16761719 66.27992188 -3.42898438 66.798125 -2.66796875 67.33203125 C4.49169856 72.88831409 8.56059538 80.92995428 10.09375 89.76171875 C11.51407177 104.10744368 10.05064012 117.73504776 1.0625 129.484375 C-10.11441899 142.41323169 -25.25052807 148.50536612 -41.90625 150.76171875 C-46.18170004 151.02685251 -50.43617811 151.04835432 -54.71875 151.01171875 C-55.86150391 151.00495117 -57.00425781 150.99818359 -58.18164062 150.99121094 C-69.10479645 150.85754682 -79.30617995 150.3440042 -89.4140625 145.8203125 C-92.19815795 144.6377265 -95.00697521 143.80867298 -97.90625 142.94921875 C-104.11290844 140.91216162 -108.8315047 137.81812051 -113.90625 133.76171875 C-114.69773437 133.14554688 -115.48921875 132.529375 -116.3046875 131.89453125 C-120.45320825 128.50293358 -120.45320825 128.50293358 -121.90625 126.76171875 C-121.90625 122.61134233 -121.72716259 122.01155921 -119.45703125 118.86328125 C-118.93818359 118.13625 -118.41933594 117.40921875 -117.88476562 116.66015625 C-117.33498047 115.90992188 -116.78519531 115.1596875 -116.21875 114.38671875 C-115.68830078 113.64421875 -115.15785156 112.90171875 -114.61132812 112.13671875 C-111.53475208 107.86348675 -108.32908448 103.76243438 -104.90625 99.76171875 C-101.87022276 101.14479783 -99.56670196 102.7935913 -97.03125 104.94921875 C-84.61476072 114.73128843 -70.61890331 119.31029792 -54.90625 119.19921875 C-53.90335938 119.21919922 -52.90046875 119.23917969 -51.8671875 119.25976562 C-43.78313634 119.25454337 -34.89292294 117.99736091 -28.78125 112.19921875 C-26.27948892 108.94692935 -25.73818841 106.38804462 -25.65625 102.38671875 C-25.63046875 101.63648438 -25.6046875 100.88625 -25.578125 100.11328125 C-26.0082703 97.03057328 -27.12145612 95.30880653 -28.90625 92.76171875 C-36.07042181 87.42047151 -44.55197145 85.09332896 -53.09375 82.94921875 C-54.77887695 82.5015918 -54.77887695 82.5015918 -56.49804688 82.04492188 C-62.31274819 80.53234837 -67.94262401 79.43034726 -73.90625 78.76171875 C-76.15625 78.11328125 -76.15625 78.11328125 -77.90625 77.38671875 C-78.56882812 77.11859375 -79.23140625 76.85046875 -79.9140625 76.57421875 C-80.90019531 76.17203125 -80.90019531 76.17203125 -81.90625 75.76171875 C-83.19733108 75.30173845 -84.489004 74.84341613 -85.78125 74.38671875 C-98.9438407 69.36381232 -108.56269119 62.65215557 -114.90625 49.76171875 C-115.2465625 49.08882813 -115.586875 48.4159375 -115.9375 47.72265625 C-119.63062338 38.86599926 -119.3221591 26.79538178 -116.28125 17.76171875 C-113.1349139 10.44620938 -108.82631164 4.1042134 -102.90625 -1.23828125 C-102.42929687 -1.7075 -101.95234375 -2.17671875 -101.4609375 -2.66015625 C-75.76776049 -26.73975209 -25.8583162 -20.69504852 0 0 Z " fill="#FA1204" transform="translate(731.90625,338.23828125)"/>
<path d="M0 0 C35.8045818 -4.41085505 35.8045818 -4.41085505 44.41845703 2.21484375 C49.62667221 7.75053009 52.95438336 14.28116977 56.13400269 21.12258911 C59.34783701 28.02373552 63.55234705 34.14055245 67.88015747 40.38217163 C69.85450085 43.24545596 71.7722099 46.14503345 73.6953125 49.04296875 C74.33484863 50.00227295 74.97438477 50.96157715 75.63330078 51.94995117 C76.08431152 52.62646729 76.53532227 53.3029834 77 54 C80.89733569 49.34944307 84.21761175 44.34817686 87.59375 39.31640625 C88.22228882 38.3832811 88.85082764 37.45015594 89.49841309 36.48875427 C91.50097566 33.51469898 93.50051158 30.53862272 95.5 27.5625 C96.84485632 25.56432135 98.18990636 23.56627307 99.53515625 21.56835938 C102.00703137 17.89605046 104.47814638 14.22323478 106.94726562 10.54907227 C107.75584015 9.37087921 107.75584015 9.37087921 108.58074951 8.16888428 C110.00189555 6.08567892 110.00189555 6.08567892 110.96856689 4.07867432 C111.82714844 2.4230957 111.82714844 2.4230957 114 0 C117.13228534 -0.81097782 120.14272643 -0.69962678 123.359375 -0.5859375 C124.71594208 -0.57320297 124.71594208 -0.57320297 126.09991455 -0.56021118 C128.98449557 -0.52666085 131.86626621 -0.45138076 134.75 -0.375 C136.70699084 -0.34490241 138.66402555 -0.31752624 140.62109375 -0.29296875 C145.41514302 -0.22686431 150.20709531 -0.12333286 155 0 C153.81200317 3.19613011 152.5569023 5.8819007 150.5234375 8.6171875 C150.02593994 9.29442871 149.52844238 9.97166992 149.01586914 10.66943359 C148.47438232 11.39727051 147.93289551 12.12510742 147.375 12.875 C142.17012453 19.97409438 137.0761403 27.13955741 132.0625 34.375 C131.3926709 35.34066895 130.7228418 36.30633789 130.03271484 37.30126953 C128.68447601 39.24526445 127.33649257 41.18943652 125.98876953 43.13378906 C122.83502845 47.67895483 119.66918177 52.21559254 116.5 56.75 C115.92572266 57.57483887 115.35144531 58.39967773 114.75976562 59.24951172 C112.33220596 62.72546484 109.8928207 66.17929352 107.31640625 69.546875 C106.20072266 71.00867188 106.20072266 71.00867188 105.0625 72.5 C104.43472656 73.2940625 103.80695313 74.088125 103.16015625 74.90625 C101.78906903 76.88297087 101.78906903 76.88297087 102.2722168 78.88623047 C103.07025314 81.20404284 104.09096634 82.89868421 105.484375 84.9140625 C106.00056396 85.66550537 106.51675293 86.41694824 107.04858398 87.19116211 C107.61005127 87.99432861 108.17151855 88.79749512 108.75 89.625 C109.33273682 90.46748291 109.91547363 91.30996582 110.51586914 92.17797852 C114.94863171 98.5604654 119.47974194 104.86974278 124.04956055 111.15454102 C128.71537913 117.57711681 133.27835081 124.06810373 137.81762695 130.58056641 C140.66478851 134.66505144 143.52087616 138.74203779 146.41015625 142.796875 C146.95212646 143.55863037 147.49409668 144.32038574 148.05249023 145.10522461 C149.06367894 146.52459382 150.07731569 147.94222387 151.09399414 149.35766602 C151.5502417 149.99889404 152.00648926 150.64012207 152.4765625 151.30078125 C152.86924316 151.84903564 153.26192383 152.39729004 153.66650391 152.9621582 C155.58687215 155.89685497 157.27807118 158.94475153 159 162 C153.30784332 162.27322046 147.61954402 162.47207961 141.92236328 162.60424805 C139.98776754 162.65936059 138.05362583 162.73428109 136.12060547 162.82983398 C120.14140845 163.59956862 120.14140845 163.59956862 115.15942383 159.87817383 C113.06955615 157.02255311 111.54236306 154.18096675 110 151 C108.80342997 149.20579158 107.57823383 147.43032103 106.32421875 145.67578125 C105.11029303 143.88916532 103.89808525 142.10138107 102.6875 140.3125 C101.38048022 138.38783617 100.07318641 136.4633584 98.765625 134.5390625 C97.81139648 133.13382324 97.81139648 133.13382324 96.83789062 131.70019531 C94.21899513 127.85256191 91.57963377 124.01919592 88.9375 120.1875 C85.24192774 114.82428227 81.58156181 109.44034705 78 104 C68.80678834 115.29868644 60.81810024 127.59217721 52.62255859 139.62060547 C50.04692373 143.39763486 47.46240064 147.16852411 44.875 150.9375 C44.20126343 151.92145752 44.20126343 151.92145752 43.51391602 152.92529297 C42.34924338 154.62143553 41.17509287 156.3110599 40 158 C39.64977783 158.71841064 39.29955566 159.43682129 38.9387207 160.17700195 C35.7159364 163.20741756 31.9871276 162.49015291 27.73828125 162.390625 C26.83248825 162.38496521 25.92669525 162.37930542 24.99345398 162.37347412 C22.09926589 162.35107616 19.2063141 162.30087392 16.3125 162.25 C14.35092933 162.2299394 12.38933927 162.21168786 10.42773438 162.1953125 C5.61801294 162.15120018 0.8092161 162.08214941 -4 162 C-1.87927975 158.22290113 0.19966177 154.53402233 2.77734375 151.046875 C3.28410645 150.35505127 3.79086914 149.66322754 4.31298828 148.95043945 C4.84907715 148.22429443 5.38516602 147.49814941 5.9375 146.75 C10.61771155 140.34679496 15.17550712 133.87803618 19.625 127.3125 C23.46595955 121.65337194 27.36436596 116.05707011 31.4375 110.5625 C35.88726713 104.55228478 40.24985629 98.48444062 44.5625 92.375 C45.4750354 91.09411499 45.4750354 91.09411499 46.40600586 89.78735352 C46.97456299 88.97838623 47.54312012 88.16941895 48.12890625 87.3359375 C48.63494385 86.61970215 49.14098145 85.9034668 49.66235352 85.16552734 C51.1352035 82.78111789 52.24970884 80.70815311 53 78 C52.32402148 75.91723994 52.32402148 75.91723994 50.84375 74.05859375 C50.32321045 73.32092773 49.8026709 72.58326172 49.26635742 71.82324219 C48.68345947 71.03594727 48.10056152 70.24865234 47.5 69.4375 C46.90485596 68.60250977 46.30971191 67.76751953 45.6965332 66.90722656 C44.43841366 65.14319041 43.17300705 63.38433185 41.90087891 61.63037109 C39.52464718 58.34222306 37.20380683 55.01751757 34.88574219 51.68823242 C33.15767699 49.20718194 31.4214198 46.73203395 29.68359375 44.2578125 C25.0032271 37.58604289 20.36010334 30.88839753 15.71557617 24.19165039 C12.76207845 19.94028786 9.79885787 15.6988635 6.765625 11.50390625 C6.29157227 10.84825684 5.81751953 10.19260742 5.32910156 9.51708984 C4.47093666 8.33577321 3.60859288 7.15747585 2.74121094 5.98291016 C0 2.21644316 0 2.21644316 0 0 Z " fill="#FA1102" transform="translate(258,324)"/>
<path d="M0 0 C1.98 0.99 1.98 0.99 4 2 C5.3242287 2.36784131 6.65613912 2.71202981 8 3 C8 3.66 8 4.32 8 5 C10.97 5.99 13.94 6.98 17 8 C17 8.66 17 9.32 17 10 C17.83402344 10.2371875 18.66804688 10.474375 19.52734375 10.71875 C23.56327846 12.20782377 26.93338764 14.22133968 30.5625 16.5 C34.64015862 19.04497936 38.49575417 21.27689925 43 23 C44.58193946 23.88269563 46.14433508 24.80114487 47.6875 25.75 C48.54988281 26.27464844 49.41226563 26.79929687 50.30078125 27.33984375 C52.1124688 28.45412336 53.92234522 29.57135262 55.73046875 30.69140625 C56.60316406 31.22636719 57.47585938 31.76132812 58.375 32.3125 C59.16648437 32.80363281 59.95796875 33.29476562 60.7734375 33.80078125 C62.87492645 34.93263582 64.66816051 35.54747407 67 36 C67 36.66 67 37.32 67 38 C69.97 38.99 72.94 39.98 76 41 C76 41.66 76 42.32 76 43 C78.97 43.99 81.94 44.98 85 46 C85 46.66 85 47.32 85 48 C87.97 48.99 90.94 49.98 94 51 C94 51.66 94 52.32 94 53 C96.97 53.99 99.94 54.98 103 56 C103 56.66 103 57.32 103 58 C105.97 58.99 108.94 59.98 112 61 C112 61.66 112 62.32 112 63 C112.79921875 63.22558594 113.5984375 63.45117188 114.421875 63.68359375 C118.98443758 65.36217845 123.03494071 67.65923636 127.25 70.0625 C128.8592604 70.97025527 130.4686301 71.87781682 132.078125 72.78515625 C132.78356445 73.18613525 133.48900391 73.58711426 134.21582031 74.00024414 C135.46043428 74.69765714 136.72392827 75.36196414 138 76 C138 76.66 138 77.32 138 78 C137.38294189 78.3309668 136.76588379 78.66193359 136.13012695 79.00292969 C124.38848384 85.30941058 112.69888898 91.68402384 101.1496582 98.33691406 C93.97291534 102.46402853 86.74332305 106.49105611 79.5 110.5 C70.31238756 115.58605769 61.15862824 120.72405938 52.06054688 125.96875 C46.08935226 129.40505049 40.05555945 132.71504817 34 136 C31.95034722 137.11947386 29.90087186 138.2392726 27.8515625 139.359375 C25.77613935 140.4897627 23.70061802 141.61997016 21.625 142.75 C20.57183594 143.32621094 19.51867187 143.90242187 18.43359375 144.49609375 C16.90798828 145.32560547 16.90798828 145.32560547 15.3515625 146.171875 C13.98765381 146.9158252 13.98765381 146.9158252 12.59619141 147.67480469 C10 149 10 149 7.22802734 149.98925781 C6.49277832 150.32280273 5.7575293 150.65634766 5 151 C4.67 151.99 4.34 152.98 4 154 C2.68 154 1.36 154 0 154 C0 103.18 0 52.36 0 0 Z " fill="#020202" transform="translate(448,330)"/>
<path d="M0 0 C37.95 0 75.9 0 115 0 C115 9.9 115 19.8 115 30 C88.27 30 61.54 30 34 30 C34 41.55 34 53.1 34 65 C60.07 65 86.14 65 113 65 C113 74.57 113 84.14 113 94 C86.93 94 60.86 94 34 94 C34 116.44 34 138.88 34 162 C22.78 162 11.56 162 0 162 C0 108.54 0 55.08 0 0 Z " fill="#FA1102" transform="translate(70,324)"/>
<path d="M0 0 C10.23 0 20.46 0 31 0 C31 38.61 31 77.22 31 117 C20.77 117 10.54 117 0 117 C0 78.39 0 39.78 0 0 Z " fill="#FA1001" transform="translate(208,369)"/>
<path d="M0 0 C4.85768039 1.9936145 8.6239164 4.94543827 11.5625 9.3125 C13.59500946 14.52632862 14.04238702 18.84496762 12.26953125 24.2109375 C9.6440956 29.97617986 5.86240467 33.53106613 0 36 C-6.15390182 36.71578616 -11.82193521 36.69861771 -17 33 C-21.59120979 28.20009886 -24.00732994 24.29853456 -24.4375 17.6875 C-24.26982522 10.96933039 -20.63789542 6.9654745 -16.5 2 C-11.7812485 -1.5725948 -5.5395381 -0.92767384 0 0 Z " fill="#FA1305" transform="translate(229,315)"/>
<path d="M0 0 C0.66 0.33 1.32 0.66 2 1 C-1.96 4.96 -5.92 8.92 -10 13 C-10 8.97698923 -8.67577112 7.95743123 -6 5 C-4.05056443 3.25501743 -2.04941287 1.63021478 0 0 Z " fill="#FA372A" transform="translate(633,333)"/>
</svg>
